<svg width="23" height="19" viewBox="0 0 23 19" fill="none" xmlns="http://www.w3.org/2000/svg">
    <path
        d="M22.9738 12.3386C22.9642 12.2846 22.9626 12.2275 22.943 12.1781L18.5546 1.15747C18.55 1.14575 18.5404 1.13859 18.5353 1.12725C18.5161 1.08475 18.4894 1.05017 18.4635 1.01266C18.4421 0.98113 18.4274 0.945738 18.4014 0.917823C18.3905 0.906171 18.3781 0.897947 18.3667 0.887167C18.3361 0.858318 18.3003 0.839874 18.2656 0.816881C18.2472 0.804731 18.2306 0.789527 18.2113 0.779184C18.1973 0.771707 18.1883 0.75831 18.1737 0.751705L18.171 0.751082C18.1581 0.74535 18.1446 0.744041 18.1315 0.739057C18.095 0.725224 18.0561 0.722856 18.0174 0.715441C17.9639 0.705222 17.9121 0.69438 17.857 0.697496C17.8458 0.698057 17.8359 0.69276 17.8246 0.693882L13.2222 1.16245C12.9126 0.477542 12.2602 0 11.5 0C10.6112 0 9.86895 0.650888 9.65294 1.52615L5.03874 1.99591C5.00464 1.99946 4.97691 2.01815 4.94451 2.02644C4.90707 2.03591 4.86835 2.03753 4.8329 2.05317C4.82922 2.05479 4.8253 2.05404 4.82161 2.05572C4.81179 2.06027 4.80588 2.06956 4.79629 2.07454C4.7571 2.09486 4.72528 2.12314 4.69059 2.15019C4.66023 2.17361 4.62742 2.191 4.60069 2.21954C4.59051 2.23044 4.58232 2.24209 4.57279 2.25356C4.54331 2.28895 4.52459 2.33057 4.50166 2.3712C4.48499 2.40055 4.46043 2.42217 4.44727 2.45451L0.05896 13.2515L0.0583165 13.2548C0.0424652 13.2942 0.0423482 13.34 0.0328725 13.3824C0.0202382 13.4396 0.000584834 13.4961 0.000467822 13.5533L0 13.5556C0 16.5575 2.29102 19 5.10706 19C7.92356 19 10.2146 16.5575 10.2146 13.5556L10.2141 13.5533C10.214 13.4961 10.1943 13.4396 10.1817 13.3824C10.1722 13.34 10.1721 13.2942 10.1563 13.2548L10.1556 13.2515L6.15974 3.42106L9.84158 3.0462C10.1718 3.66232 10.7874 4.08353 11.5 4.08353C12.342 4.08353 13.0506 3.49845 13.3075 2.69303L16.7597 2.34154L12.8425 12.1778C12.8229 12.2272 12.8212 12.2846 12.8116 12.3386C12.8036 12.3849 12.7855 12.4306 12.7855 12.4767C12.7855 15.4786 15.0764 17.9203 17.8929 17.9203C20.709 17.9203 23 15.4788 23 12.4769C23 12.4308 22.9819 12.3849 22.9738 12.3386ZM21.1956 11.7113H14.5898L17.8929 3.41719L21.1956 11.7113ZM5.10711 4.68595L8.40121 12.79H1.81331L5.10711 4.68595ZM5.10706 17.4687C3.3296 17.4687 1.84519 16.1131 1.51015 14.3213H8.70443C8.36939 16.1131 6.88492 17.4687 5.10706 17.4687ZM11.5 2.55221C11.2356 2.55221 11.0208 2.32291 11.0208 2.04177C11.0208 1.76063 11.2356 1.53133 11.5 1.53133C11.7644 1.53133 11.9792 1.76063 11.9792 2.04177C11.9792 2.32291 11.7644 2.55221 11.5 2.55221ZM17.8929 16.389C16.1151 16.389 14.6306 15.0342 14.2956 13.2426H21.4899C21.1548 15.0342 19.6704 16.389 17.8929 16.389Z"
        fill="#B6C1C9" />
</svg>