<svg width="23" height="21" viewBox="0 0 23 21" fill="none" xmlns="http://www.w3.org/2000/svg">
    <path
        d="M11.4999 19.9999V19.9999C11.2207 19.9999 10.954 19.8825 10.7567 19.6713L2.60302 10.976C0.46566 8.696 0.46566 4.98652 2.60302 2.70652C3.63496 1.60676 5.01332 0.999878 6.48197 0.999878C7.95062 0.999878 9.32898 1.60676 10.3609 2.70652L11.4999 3.92141L12.6379 2.70764C13.6709 1.60676 15.0493 0.999878 16.5179 0.999878C17.9865 0.999878 19.3649 1.60676 20.3968 2.70652C22.5342 4.98652 22.5342 8.696 20.3979 10.976L12.2432 19.6724C12.0458 19.8825 11.7792 19.9999 11.4999 19.9999"
        stroke="#B6C1C9" stroke-width="1.5" />
</svg>