<svg width="59" height="9" viewBox="0 0 59 9" fill="none" xmlns="http://www.w3.org/2000/svg">
    <path
        d="M8.89477 3.37002C8.83639 3.18158 8.67622 3.04775 8.48673 3.02993L5.91274 2.78604L4.89492 0.300117C4.81987 0.117931 4.64895 0 4.45905 0C4.26915 0 4.09823 0.117931 4.02318 0.300543L3.00536 2.78604L0.430969 3.02993C0.241816 3.04817 0.0820561 3.18158 0.0233369 3.37002C-0.0353823 3.55845 0.0188462 3.76513 0.161936 3.89542L2.10756 5.67596L1.53384 8.31311C1.49186 8.50701 1.56398 8.70745 1.71816 8.82374C1.80104 8.88622 1.898 8.91803 1.99577 8.91803C2.08007 8.91803 2.1637 8.89432 2.23874 8.84746L4.45905 7.46274L6.67854 8.84746C6.84096 8.94941 7.04569 8.94011 7.19953 8.82374C7.35378 8.70709 7.42584 8.50659 7.38385 8.31311L6.81013 5.67596L8.75576 3.89577C8.89885 3.76513 8.95349 3.55881 8.89477 3.37002Z"
        fill="#B51850" />
    <path
        d="M32.8948 3.37002C32.8364 3.18158 32.6762 3.04775 32.4867 3.02993L29.9127 2.78604L28.8949 0.300117C28.8199 0.117931 28.649 0 28.4591 0C28.2692 0 28.0982 0.117931 28.0232 0.300543L27.0054 2.78604L24.431 3.02993C24.2418 3.04817 24.0821 3.18158 24.0233 3.37002C23.9646 3.55845 24.0188 3.76513 24.1619 3.89542L26.1076 5.67596L25.5338 8.31311C25.4919 8.50701 25.564 8.70745 25.7182 8.82374C25.801 8.88622 25.898 8.91803 25.9958 8.91803C26.0801 8.91803 26.1637 8.89432 26.2387 8.84746L28.4591 7.46274L30.6785 8.84746C30.841 8.94941 31.0457 8.94011 31.1995 8.82374C31.3538 8.70709 31.4258 8.50659 31.3839 8.31311L30.8101 5.67596L32.7558 3.89577C32.8989 3.76513 32.9535 3.55881 32.8948 3.37002Z"
        fill="#B51850" />
    <path
        d="M44.8948 3.37002C44.8364 3.18158 44.6762 3.04775 44.4867 3.02993L41.9127 2.78604L40.8949 0.300117C40.8199 0.117931 40.649 0 40.4591 0C40.2692 0 40.0982 0.117931 40.0232 0.300543L39.0054 2.78604L36.431 3.02993C36.2418 3.04817 36.0821 3.18158 36.0233 3.37002C35.9646 3.55845 36.0188 3.76513 36.1619 3.89542L38.1076 5.67596L37.5338 8.31311C37.4919 8.50701 37.564 8.70745 37.7182 8.82374C37.801 8.88622 37.898 8.91803 37.9958 8.91803C38.0801 8.91803 38.1637 8.89432 38.2387 8.84746L40.4591 7.46274L42.6785 8.84746C42.841 8.94941 43.0457 8.94011 43.1995 8.82374C43.3538 8.70709 43.4258 8.50659 43.3839 8.31311L42.8101 5.67596L44.7558 3.89577C44.8989 3.76513 44.9535 3.55881 44.8948 3.37002Z"
        fill="#B51850" />
    <path
        d="M20.8948 3.37002C20.8364 3.18158 20.6762 3.04775 20.4867 3.02993L17.9127 2.78604L16.8949 0.300117C16.8199 0.117931 16.649 0 16.4591 0C16.2692 0 16.0982 0.117931 16.0232 0.300543L15.0054 2.78604L12.431 3.02993C12.2418 3.04817 12.0821 3.18158 12.0233 3.37002C11.9646 3.55845 12.0188 3.76513 12.1619 3.89542L14.1076 5.67596L13.5338 8.31311C13.4919 8.50701 13.564 8.70745 13.7182 8.82374C13.801 8.88622 13.898 8.91803 13.9958 8.91803C14.0801 8.91803 14.1637 8.89432 14.2387 8.84746L16.4591 7.46274L18.6785 8.84746C18.841 8.94941 19.0457 8.94011 19.1995 8.82374C19.3538 8.70709 19.4258 8.50659 19.3839 8.31311L18.8101 5.67596L20.7558 3.89577C20.8988 3.76513 20.9535 3.55881 20.8948 3.37002Z"
        fill="#B51850" />
    <path
        d="M58.0066 3.37002C57.9409 3.18158 57.7607 3.04775 57.5476 3.02993L54.6518 2.78604L53.5068 0.300117C53.4224 0.117931 53.2301 0 53.0164 0C52.8028 0 52.6105 0.117931 52.5261 0.300543L51.381 2.78604L48.4848 3.02993C48.272 3.04817 48.0923 3.18158 48.0263 3.37002C47.9602 3.55845 48.0212 3.76513 48.1822 3.89542L50.371 5.67596L49.7256 8.31311C49.6783 8.50701 49.7595 8.70745 49.9329 8.82374C50.0262 8.88622 50.1352 8.91803 50.2452 8.91803C50.3401 8.91803 50.4342 8.89432 50.5186 8.84746L53.0164 7.46274L55.5134 8.84746C55.6961 8.94941 55.9264 8.94011 56.0995 8.82374C56.273 8.70709 56.3541 8.50659 56.3068 8.31311L55.6614 5.67596L57.8502 3.89577C58.0112 3.76513 58.0727 3.55881 58.0066 3.37002Z"
        fill="#B1BBC2" />
</svg>